<svg width="240" height="215" fill="none" xmlns="http://www.w3.org/2000/svg"><path d="M56.919 71.065v20.202h-2.68V71.065h2.68Zm7.722 19.192.23 1.01h-8.039v-1.01h7.809Zm-1.182-9.437v.981h-6.627v-.981h6.627Zm1.297-9.755v1.01h-7.924v-1.01h7.924Zm1.758 15.123-1.556 5.079h-5.072l1.038-1.01c.999 0 1.834-.164 2.507-.49a4.65 4.65 0 0 0 1.67-1.444 9.337 9.337 0 0 0 1.124-2.135h.289Zm-3.055-4.445v2.194h-.288v-.376c0-.48-.163-.894-.49-1.24-.326-.347-.74-.52-1.238-.52v-.058h2.016Zm0-3.059v2.194h-2.017v-.058c.5-.02.913-.202 1.24-.549.326-.346.49-.76.49-1.24v-.347h.287Zm1.297-6.695v2.655h-.288v-.462c0-.596-.202-1.097-.605-1.5-.384-.404-.884-.616-1.498-.635v-.058h2.391Zm0-1.443v.837l-3.515-.318c.422 0 .864-.028 1.325-.086.48-.058.922-.125 1.326-.202.403-.077.691-.154.864-.231ZM54.326 89.16v2.107H52.02v-.289h.375c.5 0 .922-.173 1.268-.52.365-.365.557-.798.576-1.298h.087Zm0-15.988h-.087c0-.5-.182-.923-.547-1.27a1.771 1.771 0 0 0-1.297-.548h-.346l-.029-.289h2.306v2.107ZM74.372 73.547c.5 0 .97.02 1.412.058.46.038.874.087 1.239.144.384.039.72.097 1.008.174.288.057.51.115.663.173l-.087 3.087h-.317c0-.827-.288-1.471-.864-1.933-.557-.481-1.402-.722-2.536-.722-.96 0-1.767.25-2.42.75-.634.482-.95 1.088-.95 1.819 0 .288.047.568.143.837.096.25.25.5.461.75.212.231.47.462.778.693l5.388 3.954c.557.365.98.865 1.268 1.5.288.616.423 1.28.403 1.992 0 .923-.25 1.76-.749 2.51-.5.731-1.171 1.308-2.017 1.732-.845.404-1.805.606-2.88.606-.654 0-1.317-.058-1.989-.173a9.283 9.283 0 0 1-1.786-.491c-.538-.212-.98-.462-1.326-.75-.077-.308-.115-.693-.115-1.155 0-.461.048-.933.144-1.414.096-.5.22-.933.375-1.298h.317c-.077.865.057 1.625.403 2.28a3.705 3.705 0 0 0 1.498 1.529c.672.346 1.46.51 2.363.49 1.172-.019 2.074-.298 2.708-.836.653-.558.98-1.27.98-2.136 0-.48-.115-.914-.346-1.299-.211-.384-.566-.76-1.066-1.125l-5.215-3.81c-.672-.48-1.153-1.038-1.44-1.673a4.504 4.504 0 0 1-.346-1.992c.038-.827.268-1.558.691-2.193a4.525 4.525 0 0 1 1.758-1.53c.73-.365 1.546-.548 2.449-.548Zm4.322.26v.52h-2.392v-.52h2.392ZM91.1 74.038v17.229h-2.651v-17.23h2.65Zm6.742-.115v.952H81.707v-.953h16.135Zm0 .894v2.338h-.317v-.376c0-.557-.163-1.01-.49-1.356-.326-.346-.778-.529-1.354-.548v-.058h2.161Zm0-1.356v.75l-3.17-.288c.365 0 .76-.02 1.182-.058.442-.058.835-.125 1.181-.202.365-.077.634-.145.807-.202ZM88.507 89.42v1.847H86.46v-.289h.345c.442 0 .817-.154 1.124-.462.327-.307.5-.673.519-1.096h.058Zm2.506 0h.087c0 .423.163.789.49 1.096.326.308.71.462 1.152.462H93.059v.289h-2.046V89.42Zm-7.145-14.603v.058c-.577.019-1.028.202-1.355.548-.326.346-.49.799-.49 1.356v.376h-.316v-2.338h2.16Zm-2.161-1.356c.172.057.432.125.778.202.365.077.758.144 1.18.202.443.038.846.058 1.211.058l-3.17.288v-.75ZM104.293 73.951v17.316h-2.622V73.95h2.622Zm7.405 16.335.202.98h-7.665v-.98h7.463Zm-1.21-8.139v.981h-6.253v-.98h6.253Zm1.296-8.196v.982h-7.549v-.982h7.549Zm1.614 12.785-1.412 4.53h-4.581l.951-.98c.902 0 1.652-.145 2.247-.433a4.259 4.259 0 0 0 1.527-1.27c.404-.539.73-1.154.98-1.847h.288Zm-2.91-3.665v1.933h-.317v-.317c0-.443-.135-.808-.403-1.097-.25-.308-.625-.462-1.124-.462v-.057h1.844Zm0-2.8v1.934h-1.844v-.058c.499 0 .874-.154 1.124-.462.268-.307.403-.673.403-1.096v-.318h.317Zm1.296-5.425v2.366h-.288v-.375c0-.558-.163-1.01-.489-1.356-.327-.366-.778-.548-1.355-.548v-.087h2.132Zm0-1.356v.75l-3.198-.289c.596 0 1.22-.048 1.873-.144.653-.115 1.095-.221 1.325-.317Zm-10.055 15.93.317 1.847h-2.392v-.289h.403c.461 0 .836-.154 1.124-.462a1.61 1.61 0 0 0 .49-1.096h.058Zm0-13.65h-.058a1.537 1.537 0 0 0-.49-1.097c-.288-.289-.663-.433-1.124-.433h-.403v-.289h2.392l-.317 1.818ZM119.966 73.951v17.316h-2.622V73.95h2.622Zm7.405 16.335.202.98h-7.665v-.98h7.463Zm1.7-3.55-1.412 4.53h-4.581l.951-.98c.902 0 1.651-.145 2.247-.433a4.259 4.259 0 0 0 1.527-1.27c.403-.539.73-1.154.98-1.847h.288Zm-11.67 2.684.317 1.847h-2.391v-.289h.403c.461 0 .836-.154 1.124-.462a1.61 1.61 0 0 0 .49-1.096h.057Zm2.478-13.622v-1.847h2.104v.289h-.346c-.461 0-.855.154-1.181.462-.327.288-.49.654-.49 1.096h-.087Zm-2.478 0h-.057a1.49 1.49 0 0 0-.519-1.096c-.307-.308-.691-.462-1.152-.462h-.346v-.289h2.074v1.847ZM134.992 73.951v17.316h-2.622V73.95h2.622Zm7.405 16.335.201.98h-7.664v-.98h7.463Zm1.7-3.55-1.412 4.53h-4.582l.951-.98c.903 0 1.652-.145 2.248-.433a4.276 4.276 0 0 0 1.527-1.27c.403-.539.73-1.154.979-1.847h.289Zm-11.67 2.684.317 1.847h-2.391v-.289h.403c.461 0 .836-.154 1.124-.462.307-.307.47-.673.49-1.096h.057Zm2.478-13.622v-1.847h2.103v.289h-.345c-.461 0-.855.154-1.182.462a1.4 1.4 0 0 0-.489 1.096h-.087Zm-2.478 0h-.057a1.497 1.497 0 0 0-.519-1.096c-.307-.308-.692-.462-1.153-.462h-.345v-.289h2.074v1.847ZM150.017 73.951v17.316h-2.622V73.95h2.622Zm7.405 16.335.202.98h-7.664v-.98h7.462Zm-1.21-8.139v.981h-6.252v-.98h6.252Zm1.297-8.196v.982h-7.549v-.982h7.549Zm1.613 12.785-1.412 4.53h-4.581l.951-.98c.903 0 1.652-.145 2.247-.433a4.259 4.259 0 0 0 1.527-1.27c.404-.539.73-1.154.98-1.847h.288Zm-2.91-3.665v1.933h-.317v-.317c0-.443-.134-.808-.403-1.097-.25-.308-.625-.462-1.124-.462v-.057h1.844Zm0-2.8v1.934h-1.844v-.058c.499 0 .874-.154 1.124-.462.269-.307.403-.673.403-1.096v-.318h.317Zm1.297-5.425v2.366h-.288v-.375c0-.558-.164-1.01-.49-1.356-.327-.366-.778-.548-1.355-.548v-.087h2.133Zm0-1.356v.75l-3.199-.289c.596 0 1.22-.048 1.873-.144.653-.115 1.095-.221 1.326-.317Zm-10.056 15.93.317 1.847h-2.392v-.289h.404c.461 0 .835-.154 1.123-.462.308-.307.471-.673.49-1.096h.058Zm0-13.65h-.058a1.533 1.533 0 0 0-.49-1.097c-.288-.289-.662-.433-1.123-.433h-.404v-.289h2.392l-.317 1.818ZM9.031 102.089h3.688c1.383 0 2.536.231 3.458.693.941.442 1.652 1.087 2.132 1.933.5.827.75 1.809.75 2.944.018.904-.155 1.731-.52 2.482a5.392 5.392 0 0 1-1.411 1.847c-.596.5-1.278.875-2.046 1.125-.75.231-1.527.308-2.334.231-.807-.077-1.594-.337-2.363-.779v-.289l.433.058c.307.019.691.009 1.152-.029.48-.038.97-.154 1.47-.346.518-.193.998-.52 1.44-.982.461-.461.807-1.087 1.037-1.875.058-.231.106-.501.144-.808.039-.327.049-.635.03-.924-.02-1.289-.366-2.328-1.038-3.117-.653-.788-1.585-1.183-2.795-1.183H9.32l-.086-.231a3.658 3.658 0 0 0-.144-.49l-.058-.26Zm.375 0v20.201h-2.68v-20.201h2.68Zm-2.594 18.095v2.106H4.507v-.288h.375c.5 0 .922-.173 1.268-.52.365-.365.557-.798.576-1.298h.086Zm0-15.988h-.086c0-.501-.182-.924-.547-1.27a1.77 1.77 0 0 0-1.297-.549h-.346l-.029-.288h2.305v2.107Zm2.507 15.988h.087c.019.5.201.933.547 1.298.365.347.797.52 1.297.52h.374v.288H9.32v-2.106ZM26.282 104.975v17.315H23.69v-17.315h2.593Zm-2.506 15.468v1.847h-2.334v-.288h.403c.5 0 .922-.154 1.268-.462.365-.308.557-.673.576-1.097h.087Zm2.42 0h.086c.02.424.202.789.548 1.097.365.308.807.462 1.325.462h.346l.029.288h-2.334v-1.847Zm0-13.621v-1.847h2.334l-.029.288h-.346c-.518 0-.96.154-1.325.462a1.456 1.456 0 0 0-.548 1.097h-.086Zm-2.42 0h-.087c-.019-.443-.211-.808-.576-1.097-.346-.308-.778-.462-1.297-.462h-.374v-.288h2.334v1.847ZM35.845 104.975v17.315h-2.623v-17.315h2.623Zm7.405 16.334.201.981h-7.664v-.981h7.463Zm-1.21-8.138v.981h-6.253v-.981h6.252Zm1.296-8.196v.981h-7.55v-.981h7.55Zm1.614 12.784-1.412 4.531h-4.582l.951-.981c.903 0 1.652-.144 2.248-.433a4.264 4.264 0 0 0 1.527-1.27c.403-.538.73-1.154.98-1.847h.288Zm-2.91-3.665v1.934h-.318v-.318c0-.442-.134-.808-.403-1.096-.25-.308-.624-.462-1.124-.462v-.058h1.844Zm0-2.799v1.934h-1.845v-.058c.5 0 .874-.154 1.124-.462.269-.308.403-.673.403-1.097v-.317h.317Zm1.296-5.426v2.367h-.288v-.375c0-.558-.163-1.01-.49-1.357-.327-.365-.778-.548-1.354-.548v-.087h2.132Zm0-1.356v.75l-3.198-.288c.595 0 1.22-.048 1.873-.144.653-.116 1.094-.222 1.325-.318Zm-10.056 15.93.317 1.847h-2.391v-.288h.403c.461 0 .836-.154 1.124-.462.307-.308.47-.673.49-1.097h.057Zm0-13.65h-.058a1.537 1.537 0 0 0-.49-1.097c-.287-.288-.662-.433-1.123-.433h-.403v-.288h2.391l-.317 1.818ZM51.2 104.975h3.516c.864 0 1.661.096 2.391.288.73.193 1.364.491 1.902.895.538.385.95.875 1.239 1.472.307.577.46 1.26.46 2.049 0 .75-.172 1.472-.518 2.164a4.694 4.694 0 0 1-1.498 1.703c-.653.462-1.422.75-2.305.866.403.134.835.442 1.297.923a9.66 9.66 0 0 1 1.123 1.385c.039.039.173.231.404.578.23.327.518.731.864 1.212l1.095 1.385c.403.462.759.846 1.066 1.154.327.308.672.549 1.037.722.365.154.788.231 1.268.231v.288h-1.383c-1.056 0-1.93-.115-2.622-.346-.692-.231-1.268-.548-1.729-.952a7.879 7.879 0 0 1-1.21-1.328 8.534 8.534 0 0 1-.547-.779 65.23 65.23 0 0 0-.807-1.212 80.071 80.071 0 0 0-.75-1.212 11.02 11.02 0 0 1-.432-.722 5.307 5.307 0 0 0-1.18-1.327c-.423-.366-.865-.549-1.326-.549v-.288l.374.029c.25 0 .567-.01.951-.029.5-.019.99-.068 1.47-.144.499-.097.96-.328 1.383-.693.422-.385.749-.981.98-1.789a3.958 3.958 0 0 0 .172-1.501c-.038-.596-.154-1.106-.346-1.53a2.709 2.709 0 0 0-.806-1.038 3.082 3.082 0 0 0-1.124-.635 4.154 4.154 0 0 0-1.326-.26 31.614 31.614 0 0 0-1.901 0c-.538 0-.836-.01-.893-.029l-.087-.231a3.631 3.631 0 0 0-.144-.49l-.058-.26Zm.346 0v17.315h-2.622v-17.315h2.622Zm-2.535 15.468.259 1.847h-2.334v-.288h.404c.441 0 .816-.154 1.123-.462.307-.308.47-.673.49-1.097h.058Zm0-13.65h-.058a1.537 1.537 0 0 0-.49-1.097 1.584 1.584 0 0 0-1.123-.433h-.404v-.288h2.334l-.26 1.818Zm2.449 13.65h.086c0 .443.154.818.461 1.126.327.288.711.433 1.153.433h.345l.03.288h-2.363l.288-1.847ZM69.546 104.975h3.516c.864 0 1.661.096 2.391.288.73.193 1.364.491 1.902.895.538.385.95.875 1.239 1.472.307.577.46 1.26.46 2.049 0 .75-.172 1.472-.518 2.164a4.694 4.694 0 0 1-1.498 1.703c-.653.462-1.422.75-2.305.866.403.134.835.442 1.296.923.461.481.836.943 1.124 1.385.039.039.173.231.403.578.231.327.52.731.865 1.212l1.095 1.385c.403.462.759.846 1.066 1.154.327.308.672.549 1.037.722.365.154.788.231 1.268.231v.288h-1.383c-1.056 0-1.93-.115-2.622-.346-.692-.231-1.268-.548-1.729-.952a7.874 7.874 0 0 1-1.21-1.328 8.509 8.509 0 0 1-.547-.779c-.25-.385-.52-.789-.807-1.212a80.93 80.93 0 0 0-.75-1.212c-.23-.366-.374-.606-.432-.722a5.307 5.307 0 0 0-1.18-1.327c-.424-.366-.865-.549-1.326-.549v-.288l.374.029c.25 0 .567-.01.951-.029.5-.019.99-.068 1.47-.144.499-.097.96-.328 1.383-.693.422-.385.749-.981.98-1.789a3.947 3.947 0 0 0 .172-1.501c-.038-.596-.154-1.106-.346-1.53a2.71 2.71 0 0 0-.806-1.038 3.082 3.082 0 0 0-1.124-.635 4.154 4.154 0 0 0-1.326-.26 31.61 31.61 0 0 0-1.901 0c-.538 0-.836-.01-.893-.029l-.087-.231a3.602 3.602 0 0 0-.144-.49l-.058-.26Zm.346 0v17.315H67.27v-17.315h2.622Zm-2.535 15.468.259 1.847h-2.334v-.288h.403c.442 0 .817-.154 1.124-.462.308-.308.47-.673.49-1.097h.058Zm0-13.65h-.058a1.537 1.537 0 0 0-.49-1.097 1.584 1.584 0 0 0-1.124-.433h-.403v-.288h2.334l-.26 1.818Zm2.449 13.65h.086c0 .443.154.818.461 1.126.327.288.71.433 1.153.433h.345l.03.288h-2.363l.288-1.847ZM88.21 104.975v17.315h-2.623v-17.315h2.622Zm7.404 16.334.202.981h-7.664v-.981h7.462Zm-1.21-8.138v.981h-6.252v-.981h6.252Zm1.297-8.196v.981h-7.55v-.981h7.55Zm1.613 12.784-1.411 4.531H91.32l.951-.981c.903 0 1.652-.144 2.247-.433a4.263 4.263 0 0 0 1.527-1.27c.404-.538.73-1.154.98-1.847h.288Zm-2.91-3.665v1.934h-.317v-.318c0-.442-.134-.808-.403-1.096-.25-.308-.624-.462-1.124-.462v-.058h1.844Zm0-2.799v1.934H92.56v-.058c.5 0 .874-.154 1.124-.462.269-.308.403-.673.403-1.097v-.317h.317Zm1.297-5.426v2.367h-.288v-.375c0-.558-.164-1.01-.49-1.357-.327-.365-.778-.548-1.354-.548v-.087H95.7Zm0-1.356v.75l-3.198-.288c.595 0 1.22-.048 1.872-.144.653-.116 1.095-.222 1.326-.318Zm-10.056 15.93.317 1.847H83.57v-.288h.403c.462 0 .836-.154 1.124-.462.308-.308.471-.673.49-1.097h.058Zm0-13.65h-.058a1.537 1.537 0 0 0-.49-1.097c-.288-.288-.662-.433-1.123-.433h-.404v-.288h2.392l-.317 1.818ZM99.238 113.113h8.644l.202.75-.202.78h-8.644l-.202-.78.202-.75ZM119.092 101.627l8.846 20.49h-3.371l-6.426-16.796.951-3.694Zm-6.195 18.557c-.134.384-.153.711-.057.981.096.269.249.481.461.635.23.134.461.202.691.202h.26v.288h-5.907v-.288h.259c.442 0 .893-.135 1.354-.404.481-.289.874-.76 1.182-1.414h1.757Zm6.195-18.557.231 2.511-7.204 18.066h-1.872l7.405-17.345c.019-.038.086-.182.201-.433.135-.269.269-.586.404-.952.153-.365.288-.721.403-1.068.115-.346.173-.606.173-.779h.259Zm3.717 13.131v.981h-8.817v-.981h8.817Zm1.009 5.426h3.256c.307.654.691 1.125 1.152 1.414.48.269.941.404 1.383.404h.231v.288h-7.377v-.288h.26c.384 0 .72-.154 1.008-.462.288-.327.317-.779.087-1.356ZM132.314 104.542l16.279 15.007.288 3.145-16.25-15.064-.317-3.088Zm.086 15.959v1.789h-2.161v-.288h.49c.442 0 .816-.145 1.124-.433a1.41 1.41 0 0 0 .461-1.068h.086Zm2.103 0c0 .423.154.779.462 1.068a1.65 1.65 0 0 0 1.123.433h.49v.288h-2.161v-1.789h.086Zm-2.189-15.959 2.161 2.54.028 15.208h-2.189v-14.227c0-.981-.048-1.809-.144-2.482l-.116-1.039h.26Zm16.567.433v14.112c0 .635.02 1.231.058 1.789.038.539.077.981.115 1.328l.087.49h-.26l-2.161-2.568v-15.151h2.161Zm-.086 1.789v-1.789h2.161v.288h-.49c-.423 0-.797.145-1.124.433a1.41 1.41 0 0 0-.461 1.068h-.086Zm-2.075 0a1.505 1.505 0 0 0-.49-1.068 1.581 1.581 0 0 0-1.123-.433h-.49v-.288h2.161v1.789h-.058ZM161.597 105.061v17.229h-2.651v-17.229h2.651Zm6.742-.115v.952h-16.136v-.952h16.136Zm0 .895v2.337h-.317v-.375c0-.558-.163-1.01-.49-1.356-.326-.347-.778-.529-1.354-.549v-.057h2.161Zm0-1.357v.751l-3.17-.289c.365 0 .759-.019 1.182-.058.442-.057.835-.125 1.181-.202.365-.077.634-.144.807-.202Zm-9.336 15.959v1.847h-2.045v-.288h.345c.442 0 .817-.154 1.124-.462.327-.308.5-.673.519-1.097h.057Zm2.507 0h.087c0 .424.163.789.489 1.097.327.308.711.462 1.153.462H163.556v.288h-2.046v-1.847Zm-7.146-14.602v.057c-.576.02-1.027.202-1.354.549-.326.346-.49.798-.49 1.356v.375h-.317v-2.337h2.161Zm-2.161-1.357c.173.058.433.125.778.202.365.077.759.145 1.182.202.442.039.845.058 1.21.058l-3.17.289v-.751ZM179.159 104.571c1.421 0 2.728.221 3.919.664 1.21.423 2.257 1.038 3.14 1.847a8.183 8.183 0 0 1 2.104 2.857c.499 1.096.749 2.328.749 3.694s-.25 2.606-.749 3.722a8.556 8.556 0 0 1-2.104 2.857c-.883.789-1.93 1.405-3.14 1.847-1.191.424-2.498.635-3.919.635-1.402 0-2.699-.211-3.89-.635a10.025 10.025 0 0 1-3.141-1.847 8.566 8.566 0 0 1-2.103-2.857c-.48-1.116-.72-2.356-.72-3.722s.24-2.598.72-3.694a8.192 8.192 0 0 1 2.103-2.857 9.334 9.334 0 0 1 3.141-1.847c1.191-.443 2.488-.664 3.89-.664Zm0 17.171c1.345 0 2.545-.337 3.602-1.01 1.056-.693 1.882-1.645 2.478-2.857.614-1.212.922-2.626.922-4.242 0-1.636-.308-3.05-.922-4.243-.596-1.212-1.422-2.155-2.478-2.828-1.057-.693-2.257-1.039-3.602-1.039-1.306 0-2.488.346-3.544 1.039-1.057.673-1.892 1.616-2.507 2.828-.615 1.193-.922 2.607-.922 4.243 0 1.616.307 3.03.922 4.242.615 1.212 1.45 2.164 2.507 2.857 1.056.673 2.238 1.01 3.544 1.01ZM196.179 104.975v17.315h-2.593v-17.315h2.593Zm-2.506 15.468v1.847h-2.334v-.288h.403c.5 0 .922-.154 1.268-.462.365-.308.557-.673.576-1.097h.087Zm2.42 0h.086c.02.424.202.789.548 1.097.365.308.807.462 1.325.462h.346l.029.288h-2.334v-1.847Zm0-13.621v-1.847h2.334l-.029.288h-.346c-.518 0-.96.154-1.325.462a1.458 1.458 0 0 0-.548 1.097h-.086Zm-2.42 0h-.087c-.019-.443-.211-.808-.576-1.097-.346-.308-.778-.462-1.297-.462h-.374v-.288h2.334v1.847ZM202.715 104.542l16.279 15.007.289 3.145-16.251-15.064-.317-3.088Zm.086 15.959v1.789h-2.161v-.288h.49c.442 0 .817-.145 1.124-.433a1.41 1.41 0 0 0 .461-1.068h.086Zm2.104 0c0 .423.153.779.461 1.068a1.65 1.65 0 0 0 1.123.433h.49v.288h-2.161v-1.789h.087Zm-2.19-15.959 2.161 2.54.029 15.208h-2.19v-14.227c0-.981-.048-1.809-.144-2.482l-.115-1.039h.259Zm16.568.433v14.112c0 .635.019 1.231.057 1.789.039.539.077.981.115 1.328l.087.49h-.259l-2.161-2.568v-15.151h2.161Zm-.087 1.789v-1.789h2.161v.288h-.49a1.65 1.65 0 0 0-1.123.433 1.406 1.406 0 0 0-.461 1.068h-.087Zm-2.074 0a1.512 1.512 0 0 0-.49-1.068 1.585 1.585 0 0 0-1.124-.433h-.49v-.288h2.161v1.789h-.057ZM228.252 104.975v17.315h-2.622v-17.315h2.622Zm7.405 16.334.202.981h-7.665v-.981h7.463Zm-1.21-8.138v.981h-6.253v-.981h6.253Zm1.296-8.196v.981h-7.549v-.981h7.549Zm1.614 12.784-1.412 4.531h-4.581l.951-.981c.903 0 1.652-.144 2.247-.433a4.257 4.257 0 0 0 1.527-1.27c.404-.538.73-1.154.98-1.847h.288Zm-2.91-3.665v1.934h-.317v-.318c0-.442-.135-.808-.403-1.096-.25-.308-.625-.462-1.124-.462v-.058h1.844Zm0-2.799v1.934h-1.844v-.058c.499 0 .874-.154 1.124-.462.268-.308.403-.673.403-1.097v-.317h.317Zm1.296-5.426v2.367h-.288v-.375c0-.558-.163-1.01-.489-1.357-.327-.365-.778-.548-1.355-.548v-.087h2.132Zm0-1.356v.75l-3.198-.288c.596 0 1.22-.048 1.873-.144.653-.116 1.095-.222 1.325-.318Zm-10.055 15.93.317 1.847h-2.392v-.288h.403c.461 0 .836-.154 1.124-.462.308-.308.471-.673.49-1.097h.058Zm0-13.65h-.058a1.534 1.534 0 0 0-.49-1.097c-.288-.288-.663-.433-1.124-.433h-.403v-.288h2.392l-.317 1.818ZM178.92 68.087c.849 0 1.673.113 2.472.338a9.185 9.185 0 0 1 2.21.938 5.779 5.779 0 0 1 1.686 1.388l-.675 4.24h-.374c0-1.201-.225-2.227-.674-3.077-.45-.876-1.074-1.538-1.873-1.989-.774-.475-1.698-.712-2.772-.712-1.423 0-2.61.5-3.558 1.5-.924 1-1.386 2.264-1.386 3.79 0 1.575.512 3.038 1.535 4.389 1.024 1.35 2.498 2.889 4.42 4.615.55.475 1.149 1.025 1.798 1.65.675.6 1.436 1.276 2.285 2.026.874.75 1.848 1.576 2.922 2.476.799.65 1.61 1.338 2.435 2.064.849.725 1.71 1.35 2.584 1.876.899.525 1.823.825 2.772.9v.375c-.475 0-1.161-.012-2.06-.037-.874-.025-1.848-.2-2.922-.526-1.074-.325-2.147-.925-3.221-1.8-.949-.776-1.823-1.489-2.622-2.139a85.404 85.404 0 0 0-2.173-1.838 288.773 288.773 0 0 0-1.835-1.613 733.454 733.454 0 0 0-1.686-1.539 89.02 89.02 0 0 1-3.708-3.639c-.999-1.1-1.773-2.213-2.322-3.339-.525-1.15-.787-2.45-.787-3.901 0-.926.175-1.776.524-2.552.35-.775.85-1.45 1.499-2.025.674-.576 1.473-1.026 2.397-1.351.924-.325 1.96-.488 3.109-.488Zm10.338 14.444c.275 1.376.35 2.689.225 3.94a10.772 10.772 0 0 1-.936 3.488 8.721 8.721 0 0 1-1.986 2.777c-.824.8-1.81 1.425-2.959 1.876-1.149.425-2.435.637-3.858.637-1.448 0-2.784-.125-4.008-.375-1.199-.25-2.26-.613-3.184-1.088-.924-.5-1.71-1.1-2.36-1.8a7.734 7.734 0 0 1-1.423-2.44c-.325-.925-.487-1.95-.487-3.076 0-.725.075-1.388.225-1.988.175-.625.412-1.2.712-1.726a6.528 6.528 0 0 1 1.048-1.388c.425-.425.887-.813 1.386-1.163.5-.35 1.037-.65 1.611-.9l.524.825c-.499.4-.924.85-1.273 1.35-.35.476-.637.989-.862 1.539a7.38 7.38 0 0 0-.487 1.688c-.1.575-.149 1.163-.149 1.763 0 1.126.187 2.164.561 3.114.4.926.962 1.726 1.686 2.401.749.676 1.661 1.2 2.734 1.576 1.099.375 2.348.563 3.746.563 1.274 0 2.397-.25 3.371-.75.999-.526 1.823-1.201 2.472-2.026a8.735 8.735 0 0 0 1.499-2.814 8.731 8.731 0 0 0 .412-3.077 7.256 7.256 0 0 0-.749-2.926 3.71 3.71 0 0 0-.974-1.238c-.375-.325-.862-.488-1.461-.488h-.562v-.375h7.454v.375h-.562c-.549 0-.949.163-1.199.488-.224.325-.287.738-.187 1.238ZM111.693 134.555h17.288v.722h-17.288v-.722ZM24.353 147.519a.422.422 0 0 1 .687-.222.418.418 0 0 1 .117.173s6.774 17.884 17.865 32.691c5.502 7.355 14.569 13.69 22.266 18.136 4.52 2.632 10.045 5.912 14.847 7.981.519.196.198.879-.274.668-4.84-2.084-10.447-5.27-15.005-7.919-7.74-4.486-16.89-10.832-22.516-18.359-11.18-14.949-17.979-32.899-17.979-32.899a.42.42 0 0 1-.02-.247l.012-.003Z" fill="#275898"/><path d="M47.439 197.858a.423.423 0 0 1 .478-.355c.056.01.109.03.157.059 0 0 3.444 2.05 9.886 3.318 3.18.62 5.098.196 6.217-.349.426-.2.813-.473 1.144-.808.11-.105.205-.225.283-.356a.417.417 0 0 1 .568-.172.423.423 0 0 1 .171.57 2.906 2.906 0 0 1-.418.541c-.4.406-.868.738-1.383.982-1.304.637-3.432 1.071-6.745.418-6.552-1.29-10.151-3.419-10.151-3.419a.424.424 0 0 1-.202-.428l-.005-.001Z" fill="#275898"/><path d="M33.218 195.367a.423.423 0 0 1 .212-.302s7.596-4.285 14.943-2.577c3.657.849 5.753 2.613 6.918 4.177a7.704 7.704 0 0 1 1.418 2.961.422.422 0 0 1-.343.486.42.42 0 0 1-.484-.344 6.65 6.65 0 0 0-1.25-2.597c-1.055-1.422-2.958-3.055-6.438-3.864-6.064-1.409-12.23 1.429-13.72 2.185.698.495 2.708 1.903 5.707 3.635 3.582 2.069 8.037 4.218 11.39 4.597 1.715.194 2.89.163 3.666.028.774-.135 1.128-.377 1.288-.566a.73.73 0 0 0 .056-.806.423.423 0 0 1 .467-.624c.108.028.2.097.257.194 0 0 .514.957-.14 1.752-.328.399-.894.703-1.79.86-.895.157-2.138.18-3.904-.018-3.618-.418-8.095-2.613-11.716-4.706-3.62-2.093-6.36-4.094-6.36-4.094a.41.41 0 0 1-.177-.377ZM16.653 171.726a.423.423 0 0 1 .492-.333.412.412 0 0 1 .185.087s2.176 1.749 4.98 3.666c2.804 1.917 6.222 3.999 8.58 4.647 4.807 1.321 11.239.188 11.239.188a.422.422 0 0 1 .147.829s-6.495 1.203-11.606-.203c-2.596-.714-6.014-2.828-8.834-4.762-2.82-1.934-5.019-3.702-5.019-3.702a.416.416 0 0 1-.164-.417Z" fill="#275898"/><path d="M7.096 166.438a.427.427 0 0 1 .427-.354c2.137.088 4.267.291 6.382.608 3.467.524 7.489 1.458 9.81 3.324 2.216 1.782 3.443 3.349 4.11 4.485.368.58.635 1.219.789 1.89a.422.422 0 0 1-.66.412.414.414 0 0 1-.167-.273l.003-.017s-.068-.542-.68-1.583c-.612-1.042-1.763-2.529-3.915-4.258-2.051-1.645-6-2.631-9.412-3.147a51.68 51.68 0 0 0-5.369-.548c.601.788 1.868 2.415 3.896 4.652 2.614 2.891 6.024 6.176 9.049 7.759 3.069 1.592 4.592 1.514 5.288 1.184a1.193 1.193 0 0 0 .745-.909.422.422 0 1 1 .84.072l-.005.025a2.226 2.226 0 0 1-1.212 1.572c-1.06.505-2.854.453-6.029-1.197-3.175-1.649-6.641-5.005-9.276-7.923-2.636-2.918-4.507-5.448-4.507-5.448a.429.429 0 0 1-.077-.318l-.03-.008ZM12.313 150.096a.421.421 0 0 1 .564-.326c.078.03.145.082.193.151 0 0 5.456 7.52 10.272 11.594 4.815 4.073 9.797 4.109 9.797 4.109a.419.419 0 0 1 .395.426.421.421 0 0 1-.407.414s-5.316-.072-10.328-4.295c-5.011-4.223-10.417-11.739-10.417-11.739a.417.417 0 0 1-.08-.319l.011-.015Z" fill="#275898"/><path d="M.013 143.089a.42.42 0 0 1 .456-.337c2.13.243 4.246.593 6.341 1.049 3.401.748 7.25 1.883 9.175 3.785 3.691 3.621 5.36 9.961 5.36 9.961a.425.425 0 0 1-.282.524.428.428 0 0 1-.445-.138.42.42 0 0 1-.076-.145l.004-.02s-1.71-6.216-5.141-9.569c-1.633-1.603-5.43-2.819-8.77-3.552a56.344 56.344 0 0 0-5.31-.914c.873 1.252 7.009 10.021 10.777 14.037 1.983 2.1 3.764 2.498 5.072 2.415a4.452 4.452 0 0 0 2.12-.664.42.42 0 1 1 .485.689c-.77.48-1.645.76-2.549.815-1.534.104-3.618-.419-5.742-2.672C7.328 153.919.074 143.438.074 143.438a.43.43 0 0 1-.066-.321l.005-.028ZM19.367 133.547a.424.424 0 0 1 .49-.328c.052.011.101.031.145.06a32.884 32.884 0 0 1 4.258 3.354c2.168 2.024 4.485 4.749 4.862 7.69a31.59 31.59 0 0 1-.24 9.893.42.42 0 0 1-.76.155.42.42 0 0 1-.063-.315c.582-3.177.661-6.425.235-9.626-.333-2.567-2.488-5.217-4.603-7.18a28.586 28.586 0 0 0-3.596-2.882c-.181.936-1.195 6.688-.882 12.481.164 3.023 1.938 4.971 3.711 6.198a12.517 12.517 0 0 0 3.505 1.694.419.419 0 0 1 .297.516.422.422 0 0 1-.515.298 13.433 13.433 0 0 1-3.762-1.815c-1.904-1.319-3.892-3.511-4.079-6.846-.346-6.431.995-13.339.995-13.339l.002-.008ZM64.884 190.492a7.602 7.602 0 0 1 .403-1.841 4.779 4.779 0 0 1 .833-1.491.42.42 0 0 1 .593-.015.422.422 0 0 1 .014.596 3.515 3.515 0 0 0-.651 1.201c-.31.848-.556 2.162-.26 4.02.623 3.862.817 6.294.817 6.294a.422.422 0 0 1-.374.487.423.423 0 0 1-.42-.24.422.422 0 0 1-.039-.167s-.19-2.393-.806-6.229a10.285 10.285 0 0 1-.11-2.615Z" fill="#275898"/><path d="M59.45 182.994a88.546 88.546 0 0 1 2.997-12.658.42.42 0 0 1 .526-.275.449.449 0 0 1 .2.139 51.132 51.132 0 0 1 3.349 4.905c1.68 2.794 3.397 6.262 3.437 9.152a20.302 20.302 0 0 1-2.117 9.442.424.424 0 0 1-.242.22.41.41 0 0 1-.457-.123.41.41 0 0 1-.099-.312.425.425 0 0 1 .048-.16 19.49 19.49 0 0 0 2.016-9.053c-.036-2.555-1.67-5.986-3.317-8.732a45.59 45.59 0 0 0-2.783-4.137 88.318 88.318 0 0 0-2.744 11.724c-1.088 6.806 3.905 9.689 3.905 9.689a.425.425 0 0 1-.107.775.416.416 0 0 1-.32-.044s-5.467-3.298-4.307-10.55l.015-.002ZM51.824 176.642a.418.418 0 0 1 .392-.338.423.423 0 0 1 .424.297s1.486 4.805 1.954 8.346c.484 3.636-1.41 5.801-1.41 5.801a.42.42 0 0 1-.577.016.42.42 0 0 1-.045-.577s1.646-1.813 1.208-5.129c-.451-3.407-1.927-8.207-1.927-8.207a.459.459 0 0 1-.02-.209Z" fill="#275898"/><path d="M48.51 161.439a.424.424 0 0 1 .312-.345.415.415 0 0 1 .437.153s2.114 2.76 4.222 6.104a49.715 49.715 0 0 1 2.923 5.19c.808 1.705 1.356 3.28 1.36 4.549a28.867 28.867 0 0 1-1.502 8.81.425.425 0 0 1-.536.267.415.415 0 0 1-.287-.373.428.428 0 0 1 .022-.164 28.107 28.107 0 0 0 1.456-8.548c0-1.02-.499-2.545-1.28-4.196a48.013 48.013 0 0 0-2.869-5.1 77.23 77.23 0 0 0-3.488-5.092c-.065 1.215-.435 8.107-.594 13.854-.086 3.025.946 4.831 1.982 5.916a5.65 5.65 0 0 0 2.066 1.422.422.422 0 0 1 .27.535.425.425 0 0 1-.533.27 6.7 6.7 0 0 1-2.41-1.64c-1.183-1.23-2.306-3.305-2.217-6.521.18-6.249.647-15.064.647-15.064l.007-.038.012.011ZM36.435 157.177c.107-.734.28-1.458.516-2.162.199-.625.48-1.22.838-1.77a.42.42 0 1 1 .675.5c-.31.478-.552.997-.72 1.542a13.425 13.425 0 0 0-.62 4.875c.089 2.171.73 3.57 1.673 5.164.943 1.595 2.242 3.318 3.554 6.004 1.311 2.686 1.532 4.686 1.396 6.005a4.987 4.987 0 0 1-.382 1.479c-.081.188-.478 1.017-.6 1.183a.417.417 0 0 1-.705-.058.42.42 0 0 1 .058-.474c.076-.105.434-.87.483-.991.167-.392.273-.808.313-1.233.124-1.138-.044-2.942-1.31-5.539-1.266-2.597-2.529-4.303-3.514-5.94-.986-1.637-1.7-3.241-1.795-5.564a15.9 15.9 0 0 1 .148-3.019l-.008-.002Z" fill="#275898"/><path d="M34.617 143.328a.417.417 0 0 1 .654-.259s6.826 4.814 7.336 12.056c.251 3.543-.13 6.105-.581 7.79a9.6 9.6 0 0 1-1 2.528.418.418 0 0 1-.747-.141.42.42 0 0 1 .04-.308l.003-.014s.46-.69.887-2.284c.426-1.593.802-4.059.555-7.512-.416-5.862-5.178-9.974-6.46-10.997-.213 1.101-1.972 10.161-1.79 15.212.089 2.634 1.175 4.09 2.238 4.934a5.336 5.336 0 0 0 2.073 1.049.42.42 0 0 1-.16.826 6.351 6.351 0 0 1-2.432-1.213c-1.217-.971-2.454-2.706-2.554-5.564-.193-5.622 1.93-16.105 1.93-16.105l.008.002ZM23.516 189.947c-.335.832.27 2.186 1.098 2.524.828.339 1.562-.481 1.893-1.31a1.63 1.63 0 0 0 .023-1.266 1.616 1.616 0 0 0-2.153-.873 1.611 1.611 0 0 0-.861.925ZM187.574 49.603a.422.422 0 0 1-.515.287.412.412 0 0 1-.14-.072 32.939 32.939 0 0 1-3.972-3.69c-1.996-2.194-4.084-5.098-4.221-8.06a31.587 31.587 0 0 1 1.043-9.84.422.422 0 0 1 .517-.292.418.418 0 0 1 .29.518 30.796 30.796 0 0 0-1.015 9.575c.123 2.585 2.056 5.402 4.004 7.53a28.588 28.588 0 0 0 3.35 3.166c.257-.918 1.734-6.568 1.893-12.368.081-3.026-1.528-5.111-3.196-6.48a12.524 12.524 0 0 0-3.356-1.973.42.42 0 0 1-.038-.778.42.42 0 0 1 .322-.016 13.457 13.457 0 0 1 3.602 2.116c1.791 1.47 3.594 3.816 3.509 7.156-.178 6.437-2.075 13.213-2.075 13.213l-.002.008Z" fill="#275898"/><path d="M182.831 34.111a.421.421 0 0 1-.817-.025s-1.091-4.91-1.27-8.478c-.187-3.663 1.877-5.667 1.877-5.667a.418.418 0 0 1 .691.32.426.426 0 0 1-.116.29s-1.789 1.673-1.622 5.013c.174 3.433 1.255 8.337 1.255 8.337.017.07.018.141.002.21Z" fill="#275898"/><path d="M224.149 74.328a.424.424 0 0 1-.526.275.42.42 0 0 1-.279-.291s-4.143-14.28-13.995-29.942c-4.887-7.779-13.409-14.831-20.72-19.89-4.292-2.991-10.666-7.165-14.988-9.69-.501-.237.497-.526.951-.277 4.655 2.472 10.2 6.263 14.527 9.275 7.351 5.102 15.955 12.172 20.951 20.132 9.928 15.811 14.091 30.159 14.091 30.159a.418.418 0 0 1 0 .247l-.012.002Z" fill="#275898"/><path d="M211.69 30.32a.42.42 0 0 1-.657.243s-3.266-2.323-9.583-4.112c-3.12-.877-5.066-.61-6.225-.159a3.999 3.999 0 0 0-1.206.712 1.684 1.684 0 0 0-.311.333.42.42 0 1 1-.705-.457c.134-.187.288-.356.461-.506a4.884 4.884 0 0 1 1.458-.866c1.352-.529 3.508-.788 6.758.134 6.424 1.819 9.839 4.234 9.839 4.234a.42.42 0 0 1 .166.442l.005.002Z" fill="#275898"/><path d="M225.662 33.962a.43.43 0 0 1-.236.283s-7.919 3.652-15.103 1.352c-3.576-1.145-5.522-3.074-6.556-4.728a7.705 7.705 0 0 1-1.172-3.066.423.423 0 0 1 .381-.456.417.417 0 0 1 .455.382c.144.962.497 1.88 1.034 2.69.936 1.503 2.7 3.286 6.103 4.376 5.93 1.898 12.305-.429 13.851-1.06-.655-.551-2.543-2.118-5.391-4.089-3.403-2.353-7.669-4.859-10.98-5.509-1.694-.333-2.868-.398-3.651-.327-.783.072-1.156.284-1.33.46a.728.728 0 0 0-.122.798.424.424 0 0 1-.194.564.418.418 0 0 1-.562-.194s-.435-.996.283-1.735c.359-.37.947-.627 1.853-.71.905-.084 2.145-.007 3.889.335 3.572.712 7.857 3.263 11.295 5.644a79.084 79.084 0 0 1 6.007 4.6.421.421 0 0 1 .146.39ZM230.904 49.28a.419.419 0 0 1-.694.19c0-.001-2.027-1.922-4.666-4.06-2.639-2.14-5.877-4.493-8.175-5.33-4.683-1.71-11.671-1.155-11.671-1.155a.417.417 0 0 1-.456-.379.419.419 0 0 1 .378-.459s7.055-.62 12.035 1.199c2.53.923 5.764 3.308 8.418 5.466a91.881 91.881 0 0 1 4.702 4.098.418.418 0 0 1 .129.43Z" fill="#275898"/><path d="M240 55.329a.423.423 0 0 1-.455.318 59.4 59.4 0 0 1-6.311-1.127c-3.413-.804-7.345-2.063-9.508-4.112-2.063-1.956-3.159-3.618-3.732-4.804a6.081 6.081 0 0 1-.632-1.948.412.412 0 0 1 .099-.307.41.41 0 0 1 .286-.147.408.408 0 0 1 .406.225c.025.049.04.102.044.157l-.005.017s.025.545.55 1.633 1.552 2.664 3.556 4.563c1.911 1.806 5.767 3.11 9.125 3.903 1.751.42 3.522.749 5.307.984-.535-.835-1.666-2.559-3.505-4.954-2.371-3.094-5.502-6.647-8.389-8.471-2.929-1.836-4.454-1.883-5.174-1.61a1.181 1.181 0 0 0-.817.844.426.426 0 0 1-.486.347.42.42 0 0 1-.345-.487l.007-.024a2.224 2.224 0 0 1 1.336-1.468c1.097-.417 2.881-.219 5.911 1.684 3.031 1.902 6.213 5.53 8.602 8.653a80.862 80.862 0 0 1 4.05 5.796.43.43 0 0 1 .051.324l.029.01ZM196.617 44.284a.421.421 0 0 1-.817-.026s-1.091-4.91-1.27-8.478c-.187-3.663 1.877-5.667 1.877-5.667a.417.417 0 0 1 .576.031.422.422 0 0 1-.001.58s-1.789 1.672-1.622 5.013c.174 3.432 1.255 8.337 1.255 8.337.017.069.018.14.002.21Z" fill="#275898"/><path d="M198.685 59.706a.417.417 0 0 1-.338.319.42.42 0 0 1-.424-.189s-1.883-2.922-3.713-6.427a49.544 49.544 0 0 1-2.491-5.411c-.667-1.766-1.085-3.38-.986-4.645a28.861 28.861 0 0 1 2.212-8.659.424.424 0 0 1 .777.335 28.074 28.074 0 0 0-2.146 8.4c-.082 1.017.291 2.578.935 4.288a47.987 47.987 0 0 0 2.445 5.316 77.317 77.317 0 0 0 3.064 5.36c.163-1.206 1.091-8.045 1.717-13.76.331-3.008-.551-4.893-1.496-6.058a5.641 5.641 0 0 0-1.943-1.585.424.424 0 0 1 .329-.781 6.693 6.693 0 0 1 2.266 1.83c1.081 1.323 2.031 3.483 1.681 6.68-.686 6.214-1.868 14.962-1.868 14.962l-.01.037-.011-.012ZM207.794 59.408a12.54 12.54 0 0 1-.69 2.113 7.274 7.274 0 0 1-.98 1.696.417.417 0 0 1-.734-.248.425.425 0 0 1 .103-.305c.347-.452.631-.949.843-1.478a13.418 13.418 0 0 0 1.013-4.809c.088-2.17-.438-3.617-1.248-5.283-.81-1.666-1.965-3.49-3.054-6.274-1.089-2.784-1.147-4.795-.904-6.098.092-.504.261-.991.5-1.444.097-.18.214-.35.348-.505a.414.414 0 0 1 .462-.113.422.422 0 0 1 .27.393.424.424 0 0 1-.129.303 1.568 1.568 0 0 0-.216.324 4.106 4.106 0 0 0-.412 1.203c-.216 1.125-.195 2.936.856 5.628 1.051 2.691 2.171 4.494 3.02 6.206.849 1.712 1.43 3.369 1.336 5.692a15.844 15.844 0 0 1-.392 2.997l.008.002Z" fill="#275898"/><path d="M208.481 73.36a.422.422 0 0 1-.519.288.391.391 0 0 1-.153-.084s-6.413-5.353-6.333-12.613c.037-3.551.624-6.074 1.212-7.717a9.563 9.563 0 0 1 1.202-2.438.419.419 0 0 1 .668.505l-.004.014s-.516.65-1.07 2.204c-.554 1.553-1.129 3.98-1.164 7.442-.061 5.876 4.352 10.362 5.546 11.487.302-1.08 2.79-9.967 3.02-15.016.125-2.632-.839-4.173-1.83-5.1a5.35 5.35 0 0 0-1.981-1.215.42.42 0 0 1 .227-.81c.867.296 1.66.776 2.324 1.407 1.135 1.067 2.227 2.897 2.094 5.754-.264 5.619-3.231 15.894-3.231 15.894l-.008-.002ZM196.45 18.33a.423.423 0 0 0-.13-.807s-5.002-.458-8.557-.18c-3.652.282-5.372 2.587-5.372 2.587a.422.422 0 0 0 .104.57.418.418 0 0 0 .573-.076s1.428-1.99 4.758-2.25c3.421-.267 8.415.182 8.415.182a.46.46 0 0 0 .209-.025Z" fill="#275898"/><path d="M211.986 18.417a.42.42 0 0 0 .031-.773s-3.134-1.498-6.838-2.869a49.612 49.612 0 0 0-5.677-1.784c-1.833-.437-3.485-.646-4.725-.387a28.77 28.77 0 0 0-8.292 3.303.418.418 0 0 0-.195.26.417.417 0 0 0 .046.32.41.41 0 0 0 .259.195.423.423 0 0 0 .321-.046 27.991 27.991 0 0 1 8.045-3.204c.996-.21 2.589-.04 4.364.382a47.813 47.813 0 0 1 5.577 1.75 77.173 77.173 0 0 1 5.698 2.36c-1.173.316-7.827 2.11-13.406 3.462-2.937.713-4.915.077-6.19-.713a5.649 5.649 0 0 1-1.818-1.729.421.421 0 0 0-.578-.152.424.424 0 0 0-.153.579 6.691 6.691 0 0 0 2.102 2.018c1.447.905 3.707 1.573 6.829.817 6.065-1.474 14.577-3.764 14.577-3.764l.036-.016-.013-.01ZM227.614 63.856a.372.372 0 0 1-.303.282.37.37 0 0 1-.375-.175s-4.347-6.952-8.342-10.834c-3.994-3.881-5.334-3.347-5.334-3.347a.37.37 0 0 1-.322-.399.369.369 0 0 1 .384-.34s1.632-.48 5.79 3.545 8.462 10.97 8.462 10.97a.368.368 0 0 1 .051.285l-.011.013Z" fill="#275898"/><path d="M238.024 70.782a.37.37 0 0 1-.422.268 56.619 56.619 0 0 1-5.524-1.317c-2.951-.868-6.273-2.105-7.852-3.898-3.031-3.413-4.115-9.093-4.115-9.093a.37.37 0 1 1 .723-.161l-.005.016s1.128 5.574 3.945 8.735c1.341 1.512 4.612 2.817 7.51 3.669 2.173.636 3.765.967 4.623 1.133-.693-1.156-5.563-9.249-8.638-13.014-1.619-1.97-3.164-2.43-4.321-2.439a3.946 3.946 0 0 0-1.91.452.369.369 0 0 1-.509-.125.37.37 0 0 1 .125-.51 4.799 4.799 0 0 1 2.295-.558c1.358.003 3.163.592 4.897 2.706 3.394 4.157 9.146 13.825 9.146 13.825a.383.383 0 0 1 .038.287l-.006.024ZM225.747 71.635l-.344.13a.4.4 0 0 0-.208.234.438.438 0 0 0 .251.544c.102.04.213.036.311-.01 1.306-.614 3.389-.85 7.863 2.866 3.687 3.062 5.537 9.282 5.497 10.838-.372-.133-1.241-.804-1.893-1.31-1.047-.81-2.232-1.728-3.338-2.226-1.746-.79-2.818-.444-4.304.013-1.03.34-2.085.599-3.158.772-3.429.529-4.27-2.251-4.302-2.368a.43.43 0 0 0-.195-.256.406.406 0 0 0-.31-.041.396.396 0 0 0-.239.194.43.43 0 0 0-.035.315c.351 1.26 1.885 3.499 5.226 2.985a20.992 20.992 0 0 0 3.281-.8c1.47-.463 2.278-.715 3.746-.053 1.017.46 2.162 1.345 3.168 2.115 1.49 1.153 2.235 1.694 2.78 1.447a.694.694 0 0 0 .291-.27.743.743 0 0 0 .102-.392c.111-1.658-1.712-8.234-5.799-11.644-3.592-2.918-6.2-3.906-8.391-3.083Z" fill="#275898"/><path d="M223.729 95.098a.396.396 0 0 1-.304-.029.43.43 0 0 1-.204-.24.696.696 0 0 0-.074-.128 7.242 7.242 0 0 0-.493-.686 38.968 38.968 0 0 0-3.342-3.553c-1.887-1.833-2.638-3.552-2.896-4.825a4.922 4.922 0 0 1-.017-2.137.405.405 0 0 1 .19-.249.394.394 0 0 1 .45.046.437.437 0 0 1 .144.447l-.007.02a3.826 3.826 0 0 0 .031 1.723c.226 1.102.874 2.646 2.651 4.37a40.172 40.172 0 0 1 3.421 3.65c.165.208.321.426.465.65.77-.384 4.05-2.155 4.761-5.01.876-3.52 1.322-4.767 1.322-4.767a.395.395 0 0 1 .523-.234.434.434 0 0 1 .241.548s-.42 1.18-1.297 4.695c-.937 3.778-5.527 5.695-5.527 5.695l-.038.014Z" fill="#275898"/><path d="M233.74 94.227a.39.39 0 0 1-.202.025.415.415 0 0 1-.191-.079 11.134 11.134 0 0 1-2.309-2.33 18.407 18.407 0 0 1-1.708-2.663.444.444 0 0 1-.034-.324.404.404 0 0 1 .348-.292.402.402 0 0 1 .3.1.44.44 0 0 1 .103.129 17.58 17.58 0 0 0 1.631 2.551c.531.71 1.148 1.346 1.835 1.892.345-.39 1.741-2.037 2.057-4.199.149-.937.2-1.89.153-2.843a4.81 4.81 0 0 0-.116-.885.432.432 0 0 1 .035-.32.393.393 0 0 1 .553-.148c.095.057.165.15.195.258.079.35.127.706.143 1.064a14.543 14.543 0 0 1-.16 3.023c-.408 2.792-2.495 4.947-2.495 4.947a.436.436 0 0 1-.133.092l-.005.002ZM214.778 94.598a.4.4 0 0 1-.308-.05.436.436 0 0 1-.192-.258s-.255-1.05-1.39-3.71c-.589-1.38-.743-2.334-.733-2.969a2.577 2.577 0 0 1 .097-.722c.031-.102.074-.2.126-.29a.392.392 0 0 1 .564-.098.44.44 0 0 1 .172.273.424.424 0 0 1-.061.313l-.026.076c-.044.157-.065.32-.064.484-.005.482.114 1.315.667 2.613a32.114 32.114 0 0 1 1.29 3.383 6.417 6.417 0 0 0 2.643-1.594c.422-.4.802-.845 1.134-1.328l.034-.061a.417.417 0 0 1 .11-.298.391.391 0 0 1 .284-.124.391.391 0 0 1 .309.143.478.478 0 0 1 .106.207.52.52 0 0 1 .006.207 1.014 1.014 0 0 1-.147.374 8.71 8.71 0 0 1-1.251 1.483 7.241 7.241 0 0 1-3.361 1.948l-.009-.002Z" fill="#275898"/><path d="M210.538 89.622a.72.72 0 0 1-.381.082.753.753 0 0 1-.374-.129 1.983 1.983 0 0 1-.526-.635c-.39-.667-.555-1.72-.607-3.047a22.31 22.31 0 0 1 .308-4.498c.531-3.183 1.743-6.464 4.101-7.746 4.415-2.4 8.236-1.786 8.236-1.786a.407.407 0 0 1 .272.163.449.449 0 0 1 .087.31.416.416 0 0 1-.149.278.382.382 0 0 1-.298.082l-.015.005s-3.523-.587-7.727 1.702c-1.952 1.061-3.177 4.1-3.695 7.165a21.796 21.796 0 0 0-.298 4.32c.052 1.257.275 2.267.488 2.635.058.105.13.202.213.286a.387.387 0 0 0 .064-.099c.094-.193.178-.392.251-.596.368-.98.862-2.56 2.011-3.64 1.149-1.082 2.477-1.554 3.963-2.073 1.485-.52 3.107-1.066 4.845-2.17 1.642-1.046 2.037-2.698 2.038-4.159-.005-.9.233-1.066-.042-1.928a.429.429 0 0 1 .106-.45.386.386 0 0 1 .445-.06.427.427 0 0 1 .211.242c.307.957.085 1.224.086 2.224-.002 1.627-.499 3.635-2.413 4.853-1.821 1.156-3.524 1.724-5.002 2.243-1.477.52-2.714.99-3.688 1.91-.974.918-1.428 2.321-1.809 3.336-.084.232-.18.46-.287.682a1.148 1.148 0 0 1-.413.507l-.001-.01Z" fill="#275898"/><path fill-rule="evenodd" clip-rule="evenodd" d="M120.697.721c-51.88 0-95.106 37.118-104.648 86.286a.36.36 0 1 1-.707-.138C24.95 37.37 68.466 0 120.697 0c19.623 0 38.018 5.275 53.846 14.487a.36.36 0 0 1-.362.623C158.46 5.962 140.19.722 120.697.722Zm102.939 136.013a.36.36 0 0 1 .247.446C211.023 182.115 169.695 215 120.697 215c-14.457 0-28.247-2.863-40.836-8.054a.361.361 0 0 1 .274-.668c12.503 5.157 26.201 8.001 40.562 8.001 48.668 0 89.72-32.664 102.494-77.298a.36.36 0 0 1 .445-.247Z" fill="#275898"/><path d="M78.008 153.847h5.745v-1.13h-3.93v-.064l1.735-1.815c1.598-1.615 2.054-2.386 2.054-3.362 0-1.402-1.142-2.476-2.787-2.476-1.632 0-2.825 1.057-2.825 2.651h1.257c-.004-.938.601-1.552 1.543-1.552.886 0 1.56.546 1.56 1.415 0 .772-.46 1.325-1.398 2.318l-2.954 3.06v.955ZM88.062 153.847h1.376l3.797-7.56v-1.168h-5.77v1.13h4.407v.063l-3.81 7.535ZM96.474 153.928c.464 0 .852-.38.852-.853a.857.857 0 0 0-.852-.848.854.854 0 0 0-.853.848c0 .473.384.853.853.853ZM104.126 153.991c2.015 0 3.196-1.644 3.196-4.504 0-2.838-1.198-4.487-3.196-4.487-2.003 0-3.196 1.645-3.201 4.487 0 2.855 1.181 4.5 3.201 4.504Zm0-1.137c-1.181 0-1.892-1.185-1.892-3.367.004-2.173.716-3.371 1.892-3.371 1.172 0 1.888 1.198 1.888 3.371 0 2.182-.712 3.367-1.888 3.367ZM114.182 153.966c1.816 0 3.098-1.031 3.107-2.446-.009-1.1-.78-2.024-1.756-2.199v-.051c.848-.205 1.424-1.002 1.432-1.943-.008-1.334-1.185-2.327-2.783-2.327-1.615 0-2.791.993-2.782 2.327-.009.937.566 1.738 1.432 1.943v.051c-.993.175-1.765 1.099-1.756 2.199-.009 1.415 1.274 2.446 3.106 2.446Zm0-1.078c-1.091 0-1.781-.58-1.772-1.453-.009-.908.741-1.556 1.772-1.556 1.015 0 1.765.648 1.773 1.556-.008.873-.694 1.453-1.773 1.453Zm0-4.061c-.882 0-1.508-.559-1.5-1.389-.008-.819.597-1.36 1.5-1.36.887 0 1.492.541 1.5 1.36-.008.83-.63 1.389-1.5 1.389ZM121.803 153.928c.464 0 .852-.38.852-.853a.857.857 0 0 0-.852-.848.855.855 0 0 0-.853.848c0 .473.384.853.853.853ZM126.744 153.847h5.745v-1.13h-3.929v-.064l1.734-1.815c1.598-1.615 2.054-2.386 2.054-3.362 0-1.402-1.142-2.476-2.787-2.476-1.632 0-2.825 1.057-2.825 2.651h1.257c-.004-.938.601-1.552 1.543-1.552.886 0 1.559.546 1.559 1.415 0 .772-.46 1.325-1.397 2.318l-2.954 3.06v.955ZM139.542 153.991c2.016 0 3.196-1.644 3.196-4.504 0-2.838-1.197-4.487-3.196-4.487-2.003 0-3.196 1.645-3.2 4.487 0 2.855 1.18 4.5 3.2 4.504Zm0-1.137c-1.18 0-1.892-1.185-1.892-3.367.004-2.173.716-3.371 1.892-3.371 1.172 0 1.888 1.198 1.888 3.371 0 2.182-.712 3.367-1.888 3.367ZM146.65 153.847h5.744v-1.13h-3.929v-.064l1.735-1.815c1.598-1.615 2.054-2.386 2.054-3.362 0-1.402-1.142-2.476-2.787-2.476-1.632 0-2.826 1.057-2.826 2.651h1.257c-.004-.938.601-1.552 1.543-1.552.886 0 1.56.546 1.56 1.415 0 .772-.46 1.325-1.398 2.318l-2.953 3.06v.955ZM156.409 153.847h5.745v-1.13h-3.929v-.064l1.734-1.815c1.598-1.615 2.054-2.386 2.054-3.362 0-1.402-1.142-2.476-2.787-2.476-1.632 0-2.825 1.057-2.825 2.651h1.257c-.004-.938.601-1.552 1.543-1.552.886 0 1.559.546 1.559 1.415 0 .772-.46 1.325-1.398 2.318l-2.953 3.06v.955Z" fill="#275898"/></svg>